<svg width="20" height="20" viewBox="0 0 20 20" fill="none" xmlns="http://www.w3.org/2000/svg">
<path d="M10 0.301392C4.49 0.301392 0 4.66838 0 10.0274C0 15.3865 4.49 19.7534 10 19.7534C15.51 19.7534 20 15.3865 20 10.0274C20 4.66838 15.51 0.301392 10 0.301392ZM14 10.7569H10.75V13.9178C10.75 14.3166 10.41 14.6473 10 14.6473C9.59 14.6473 9.25 14.3166 9.25 13.9178V10.7569H6C5.59 10.7569 5.25 10.4262 5.25 10.0274C5.25 9.62865 5.59 9.29797 6 9.29797H9.25V6.13701C9.25 5.73824 9.59 5.40756 10 5.40756C10.41 5.40756 10.75 5.73824 10.75 6.13701V9.29797H14C14.41 9.29797 14.75 9.62865 14.75 10.0274C14.75 10.4262 14.41 10.7569 14 10.7569Z" fill="#990B0B"/>
</svg>
