<svg width="28" height="29" viewBox="0 0 28 29" fill="none" xmlns="http://www.w3.org/2000/svg">
<path d="M14 25.1902C13.8465 25.1911 13.6943 25.1608 13.5521 25.1011C13.41 25.0414 13.2807 24.9535 13.1717 24.8423L4.10668 15.5099C2.9696 14.3286 2.33179 12.7337 2.33179 11.0717C2.33179 9.40965 2.9696 7.81475 4.10668 6.63342C5.25265 5.45849 6.80498 4.79871 8.42335 4.79871C10.0417 4.79871 11.594 5.45849 12.74 6.63342L14 7.92892L15.26 6.63342C16.406 5.45849 17.9583 4.79871 19.5767 4.79871C21.195 4.79871 22.7474 5.45849 23.8933 6.63342C25.0304 7.81475 25.6682 9.40965 25.6682 11.0717C25.6682 12.7337 25.0304 14.3286 23.8933 15.5099L14.8283 24.8423C14.7193 24.9535 14.59 25.0414 14.4479 25.1011C14.3058 25.1608 14.1536 25.1911 14 25.1902Z" fill="#657786"/>
</svg>
