<?xml version="1.0" encoding="UTF-8"?>
<svg id="Calque_2" data-name="Calque 2" xmlns="http://www.w3.org/2000/svg" viewBox="0 0 282.15 335.59">
  <defs>
    <style>
      .cls-1 {
        fill: #1d1d1b;
      }

      .cls-1, .cls-2 {
        stroke: #1d1d1b;
        stroke-miterlimit: 10;
      }

      .cls-2 {
        fill: #fff;
      }
    </style>
  </defs>
  <g id="logo_colored">
    <g>
      <path id="exterior_line" class="cls-1" d="M79.45.77c-9.23,2.9-34.42,43.45-34.79,94.01C23.27,103.76-1,168.37,2.6,164.88c18.77-18.18-4.6,19.83-1.88,31.45,13.85,59.21,98.24,131.47,94.68,116.84-7.56-31.08,37.56,21.92,45.67,21.92s49.7-44.91,44.96-24.2,81.2-53.51,95.44-116.54c2.37-10.5-20.44-50.77-4.09-33.76-6.73-36.79-41.27-68.36-41.08-69.76C241.36,54.2,209.21.5,202.88.5c-14.75,0-19.91,52.16-62.24,52.16C102.92,52.66,87.62-1.6,79.45.77Z"/>
      <path id="interrior_line" class="cls-2" d="M215.8,196.59c-2.57.87,22.42-1.17,22.42.79,0,37.71-24.39,57.31-27.16,63.96-.72,1.73-.71-36.03-1.45-33.63-12.03,39.19-54.99,81.74-68.53,81.74-10.06,0-56.07-44.11-68.61-81.34-.56-1.67,1.85,35.87-2.5,32.71-9.19-6.68-31.68-53.7-26.37-65.54.9-2,23.95.02,20.84-.92-71.21-21.63-7.52-76.53-16.48-68.84-38.7,33.23,15.81-36.97,54.07-57.96,2.32-1.28-24.06,14.16-2.57-12.86,6.4-8.04,41.65,31.25,41.65,31.25,1.08,0,30.88-42.23,41.23-30.07,21.89,25.71-9.69,8.11-3.36,12.07,30.54,19.09,105.03,92.77,56.18,58.95-5.98-4.14,49.65,46.29-19.32,69.69Z"/>
      <path id="mouth_line" class="cls-1" d="M188.11,232.07c-.62,3.64-10.55,19.78-49.32,19.78s-44.57-18.73-44.57-18.73c-4.29-41.54-36.53-89.3-27.43-81.89,40.35,32.84,31.45,96.13,61.71,83.08,6.84-2.95,5.6-6.79,5.6-9.16,0-2.6-12.32-5.41-12.99-9.56-2.77-17.27,15.66-22.29,19.66-22.29s23.66,5.27,20.03,22.35c-.88,4.15-12.86,6.42-12.86,9.1,0,1.52-2.24,6.46,5.67,9.56,29.59,11.59,21.36-48.07,60.25-80.13,5.65-4.66-13.96,9.12-25.76,77.89Z"/>
      <path id="outterye_left" class="cls-1" d="M132.85,147.28c-25.94,17.08-30.2,29.8-27.3,18.99,1.69-6.3,12.72-13.1,4.88-13.85-12.53-1.19-28.75-14.64-26.24-18.33,5.68-8.37-9.41-19.22-4.48-18.59,35.21,4.48,26.13,29.8,44.7,29.8,8.12,0,6.07-6.59,6.07-10.95,0-8.6,7.78,9.36,2.37,12.92Z"/>
      <path id="outter_eye_right" class="cls-1" d="M148.8,147.28c25.94,17.08,30.2,29.8,27.3,18.99-1.69-6.3-12.72-13.1-4.88-13.85,12.53-1.19,28.75-14.64,26.24-18.33-5.68-8.37,9.41-19.22,4.48-18.59-35.21,4.48-26.13,29.8-44.7,29.8-8.12,0-6.07-6.59-6.07-10.95,0-8.6-7.78,9.36-2.37,12.92Z"/>
      <path id="ear_right" class="cls-2" d="M79.35,66.77c13.35-9.69-3.8,16.29-10.71,16.29s-7.91-18.81-7.91-32.31c0-14.64,8.25-28.62,15.16-28.62,4.37,0,8.94,12.04,9,24.07.06,12.86-8.2,22.5-5.54,20.57Z"/>
      <path id="ear_left" class="cls-2" d="M202.27,66.77c-13.35-9.69,3.8,16.29,10.71,16.29,6.86,0,7.91-18.81,7.91-32.31,0-14.64-8.25-28.62-15.16-28.62-4.37,0-8.94,12.04-9,24.07-.06,12.86,8.2,22.5,5.54,20.57Z"/>
      <path id="eye_left" class="cls-2" d="M110.5,144.51c0,3.71-7.71,1.12-11.47-1.05-3.21-1.86-6.13-5.65-6.13-9.36s8.6-.23,11.23,1.82c2.94,2.28,6.37,4.89,6.37,8.6Z"/>
      <path id="eye_right" class="cls-2" d="M172.32,144.51c0,3.71,7.71,1.12,11.47-1.05,3.21-1.86,6.13-5.65,6.13-9.36s-8.6-.23-11.23,1.82c-2.94,2.28-6.37,4.89-6.37,8.6Z"/>
    </g>
  </g>
</svg>