<svg width="24" height="24" viewBox="0 0 24 24" fill="none" xmlns="http://www.w3.org/2000/svg">
<path d="M23.562 20.3805L18.0495 14.868C18.969 13.38 19.5 11.6265 19.5 9.75C19.5 4.365 15.135 0 9.75 0C4.365 0 0 4.365 0 9.75C0 15.135 4.365 19.5 9.75 19.5C11.6265 19.5 13.38 18.969 14.868 18.0495L20.3805 23.562C20.964 24.1455 21.918 24.1455 22.5015 23.562L23.562 22.5015C24.1455 21.918 24.1455 20.964 23.562 20.3805ZM4.977 14.523C3.702 13.248 3 11.553 3 9.75C3 7.947 3.702 6.252 4.977 4.977C6.252 3.702 7.947 3 9.75 3C11.553 3 13.248 3.702 14.523 4.977C15.798 6.252 16.5 7.947 16.5 9.75C16.5 11.553 15.798 13.248 14.523 14.523C13.248 15.798 11.553 16.5 9.75 16.5C7.947 16.5 6.252 15.798 4.977 14.523Z" fill="#657786"/>
</svg>
