<svg width="41" height="32" viewBox="0 0 41 32" fill="none" xmlns="http://www.w3.org/2000/svg">
<path d="M36.715 0H3.33772C1.49502 0 0 1.49502 0 3.33772V27.8144C0 29.6571 1.49502 31.1521 3.33772 31.1521H36.715C38.5577 31.1521 40.0527 29.6571 40.0527 27.8144V3.33772C40.0527 1.49502 38.5577 0 36.715 0ZM36.715 27.8144H3.33772V3.33772H36.715V27.8144ZM14.4635 15.576C16.9181 15.576 18.9138 13.5804 18.9138 11.1257C18.9138 8.67113 16.9181 6.67545 14.4635 6.67545C12.0088 6.67545 10.0132 8.67113 10.0132 11.1257C10.0132 13.5804 12.0088 15.576 14.4635 15.576ZM8.23305 24.4766H20.6939C21.5561 24.4766 22.2515 23.8786 22.2515 23.1415V21.8065C22.2515 19.5952 20.1585 17.8012 17.5787 17.8012C16.8277 17.8012 16.2784 18.3575 14.4635 18.3575C12.5929 18.3575 12.141 17.8012 11.3483 17.8012C8.76848 17.8012 6.67545 19.5952 6.67545 21.8065V23.1415C6.67545 23.8786 7.3708 24.4766 8.23305 24.4766ZM25.0329 20.0263H32.8209C33.1269 20.0263 33.3772 19.776 33.3772 19.47V18.3575C33.3772 18.0515 33.1269 17.8012 32.8209 17.8012H25.0329C24.727 17.8012 24.4766 18.0515 24.4766 18.3575V19.47C24.4766 19.776 24.727 20.0263 25.0329 20.0263ZM25.0329 15.576H32.8209C33.1269 15.576 33.3772 15.3257 33.3772 15.0198V13.9072C33.3772 13.6012 33.1269 13.3509 32.8209 13.3509H25.0329C24.727 13.3509 24.4766 13.6012 24.4766 13.9072V15.0198C24.4766 15.3257 24.727 15.576 25.0329 15.576ZM25.0329 11.1257H32.8209C33.1269 11.1257 33.3772 10.8754 33.3772 10.5695V9.45688C33.3772 9.15092 33.1269 8.90059 32.8209 8.90059H25.0329C24.727 8.90059 24.4766 9.15092 24.4766 9.45688V10.5695C24.4766 10.8754 24.727 11.1257 25.0329 11.1257Z" fill="#657786"/>
</svg>
