<svg width="21" height="20" viewBox="0 0 21 20" fill="none" xmlns="http://www.w3.org/2000/svg">
<path d="M21 10.0548C21 15.4275 16.2986 19.7808 10.5 19.7808C4.70142 19.7808 0 15.4275 0 10.0548C0 4.68517 4.70142 0.328735 10.5 0.328735C16.2986 0.328735 21 4.68517 21 10.0548ZM10.7818 3.5446C8.47443 3.5446 7.00282 4.44492 5.84723 6.04505C5.69752 6.25236 5.74761 6.53194 5.96218 6.68266L7.43129 7.71448C7.65166 7.86927 7.96565 7.83244 8.13686 7.63126C8.8932 6.74266 9.41181 6.22737 10.563 6.22737C11.4279 6.22737 12.4978 6.74301 12.4978 7.51992C12.4978 8.10724 11.9744 8.40887 11.1203 8.85238C10.1244 9.36955 8.80645 10.0132 8.80645 11.6235V11.7803C8.80645 12.0402 9.03394 12.251 9.31452 12.251H11.6855C11.9661 12.251 12.1935 12.0402 12.1935 11.7803V11.7281C12.1935 10.6119 15.7155 10.5654 15.7155 7.54482C15.7155 5.27011 13.1682 3.5446 10.7818 3.5446ZM10.5 13.2706C9.42608 13.2706 8.55242 14.0799 8.55242 15.0746C8.55242 16.0694 9.42608 16.8787 10.5 16.8787C11.5739 16.8787 12.4476 16.0694 12.4476 15.0746C12.4476 14.0799 11.5739 13.2706 10.5 13.2706Z" fill="#990B0B"/>
</svg>
