<svg width="106" height="55" viewBox="0 0 106 55" fill="none" xmlns="http://www.w3.org/2000/svg">
<rect width="100" height="55" rx="27.5" fill="#657786"/>
<path d="M64.8169 24.442C64.7806 24.0441 64.7457 23.6691 64.7711 23.3858C64.9957 20.8827 64.2662 18.626 62.6618 16.8613C60.8418 14.859 57.9727 13.6635 54.9875 13.6635C50.8307 13.6635 47.3466 15.8415 45.667 19.4899C45.663 19.4994 45.658 19.5088 45.6545 19.5183C45.2686 18.0977 44.8792 17.1117 44.5675 16.3215C44.0407 14.985 43.7579 14.2685 43.9844 12.697C44.4062 12.6482 44.7816 12.4744 45.0834 12.193C45.1357 12.1965 45.19 12.199 45.2447 12.199C45.8099 12.199 46.2999 11.9849 46.6539 11.6035C46.6684 11.604 46.6833 11.604 46.6977 11.604C47.4013 11.604 48.0004 11.2997 48.3992 10.7629C49.3722 10.6813 50.0444 10.0947 50.1774 9.19093C50.3566 7.97794 49.9324 4.58296 49.0157 3.51438C48.6522 3.08963 48.2508 3 47.9789 3C46.4278 3 44.0019 3.35802 41.9424 3.89032C38.1889 4.86032 37.6023 5.83977 37.5092 6.58519C37.1282 9.66099 36.5636 12.4047 36.0646 14.8257C35.3576 18.2555 34.7994 20.9648 35.0693 23.095C35.1743 23.9261 35.384 24.6391 35.5861 25.3278C35.8391 26.1872 36.0995 27.0761 36.1876 28.2916C36.3086 29.9811 38.1331 30.9501 41.1935 30.9501C42.393 30.9501 43.6165 30.7937 44.6203 30.5154C45.8512 31.1049 49.913 32.8766 54.251 32.8766C55.7429 32.8766 57.1326 32.6635 58.3835 32.2432C64.7835 30.0891 65.0709 27.208 64.8169 24.442ZM36.0577 22.969C35.6264 19.5666 37.5849 14.0817 38.4981 6.70918C38.653 5.46183 44.3305 4.15623 47.4536 4.01531C47.3266 4.11739 47.2355 4.25133 47.2236 4.39374C47.598 4.22395 48.1572 4.16917 48.4316 4.72886C48.446 4.63525 48.452 4.55209 48.452 4.47441C48.5954 4.75525 48.7264 5.13817 48.8369 5.57437C48.9758 6.20178 49.0535 6.84512 49.055 7.49095C49.056 7.9396 49.1536 9.539 48.4151 9.33086C47.96 9.20239 47.9486 8.78262 47.8186 8.35041C47.6184 7.6747 47.2659 6.89591 47.3087 6.17788C47.1349 6.88247 47.3416 7.72798 47.4183 8.44053C47.4621 8.85532 47.7489 9.97619 47.241 10.1291C46.9601 10.2152 46.6345 10.0175 46.402 9.87262C46.3133 9.81685 46.2471 9.40903 46.2147 9.29451C46.0146 8.5944 45.656 7.78922 45.7018 7.05376C45.5266 7.71702 45.6974 8.51622 45.7531 9.19591C45.7875 9.61717 46.0001 10.5304 45.5251 10.7425C44.9873 11.0239 44.9046 10.3417 44.805 9.98416C44.6203 9.3204 44.32 8.5944 44.328 7.89827C44.1403 8.74627 44.3609 9.73917 44.3972 10.6076C44.4166 11.0388 43.5129 11.4282 43.1758 11.1573C42.6475 10.7326 42.5583 9.73817 42.4986 9.09533C42.6569 9.31144 42.884 9.59078 43.1723 9.5624C42.9273 9.28305 42.8232 8.80403 42.6594 8.46443C42.509 8.18559 42.2038 7.52183 41.8448 7.51087C41.9 7.62988 42.2028 8.44999 42.156 8.53664C42.0101 8.80802 41.8682 9.08388 41.7058 9.3438C41.5679 9.5624 41.1676 10.259 40.8444 10.0484C40.4953 9.82233 40.2762 8.81001 40.2762 8.81001C40.2762 8.81001 40.2892 10.0723 40.7403 10.3646C41.1676 10.6424 41.6546 10.2042 41.9374 9.89154C41.9937 10.4916 42.156 11.1952 42.519 11.6592C41.4524 16.3892 43.4158 16.3419 44.7393 22.6648C44.7393 22.6648 45.6117 21.3786 46.3746 19.7219C48.0392 16.1059 51.5114 14.4945 54.8585 14.4945C58.1778 14.4945 61.7321 16.1915 63.0238 19.1254C63.4505 20.0944 63.5566 21.2526 63.4411 22.5284C63.2524 24.6063 65.3029 27.9868 57.654 30.5268C51.5845 32.542 44.1194 28.678 44.1194 28.678C42.0718 29.3472 37.2836 29.6395 37.1825 28.2213C37.0157 25.8984 36.2783 24.7158 36.0577 22.969Z" fill="black"/>
<path d="M51.0562 28.679C52.3892 29.1679 53.8378 29.3009 55.235 29.1346C56.6332 28.9653 58.0016 28.5087 59.1936 27.7388C59.7852 27.3514 60.3354 26.8854 60.7781 26.3262C61.2108 25.765 61.5614 25.1167 61.6425 24.429C60.7821 25.4817 59.6876 26.0613 58.5598 26.5219C57.4259 26.97 56.2334 27.2494 55.0313 27.3933C53.8283 27.5322 52.6138 27.5337 51.4108 27.347C50.2063 27.1582 49.0271 26.7713 47.8385 26.1101C48.5177 27.3061 49.7327 28.191 51.0562 28.679Z" fill="black"/>
<path d="M46.7346 5.41501C46.9457 4.04616 45.5734 4.4968 45.5256 5.08039C45.9 4.91009 46.4602 4.85582 46.7346 5.41501Z" fill="black"/>
<path d="M45.3777 6.17191C45.5893 4.80257 44.2175 5.25221 44.1697 5.83779C44.5441 5.666 45.1038 5.61222 45.3777 6.17191Z" fill="black"/>
<path d="M43.8106 6.96213C44.0223 5.59328 42.6504 6.04342 42.6026 6.62801C42.9776 6.45622 43.5363 6.40294 43.8106 6.96213Z" fill="black"/>
<path d="M16.058 49.098C15.736 49.098 15.512 48.86 15.512 48.51C15.512 48.328 15.568 47.964 15.568 47.698V40.404C15.568 40.138 15.512 39.774 15.512 39.592C15.512 39.242 15.75 39.004 16.072 39.004H16.184C16.464 39.004 16.646 39.116 16.772 39.382C16.856 39.55 16.926 39.76 17.024 39.984L19.614 45.724C19.74 45.99 19.824 46.256 19.866 46.41C19.922 46.27 20.02 46.004 20.16 45.71L22.708 39.984C22.806 39.76 22.876 39.55 22.96 39.382C23.086 39.116 23.268 39.004 23.548 39.004H23.66C23.982 39.004 24.22 39.242 24.22 39.592C24.22 39.774 24.164 40.138 24.164 40.404V47.698C24.164 47.964 24.22 48.328 24.22 48.51C24.22 48.86 23.996 49.098 23.674 49.098C23.352 49.098 23.128 48.86 23.128 48.51C23.128 48.328 23.184 47.964 23.184 47.698L23.212 41.986C23.212 41.622 23.24 41.16 23.268 40.838L20.706 46.55C20.524 46.97 20.496 47.11 20.384 47.264C20.272 47.418 20.076 47.474 19.88 47.474C19.684 47.474 19.474 47.418 19.362 47.264C19.25 47.11 19.236 46.97 19.04 46.55L16.45 40.838C16.492 41.16 16.52 41.608 16.52 41.986L16.548 47.698C16.548 47.964 16.604 48.328 16.604 48.51C16.604 48.86 16.38 49.098 16.058 49.098ZM27.1165 52.206C26.6545 52.206 26.3045 51.996 26.3045 51.618C26.3045 51.352 26.5425 51.1 26.8225 51.1C27.1165 51.1 27.2145 51.254 27.4665 51.254C27.7465 51.254 27.9145 51.086 28.0685 50.694L28.6705 49.098H28.6425C28.4185 49.098 28.1525 48.958 28.0685 48.734C27.9845 48.524 28.0125 48.258 27.8865 47.922L26.4305 43.722C26.3465 43.484 26.2625 43.358 26.1925 43.204C26.1365 43.078 26.0945 42.966 26.0945 42.826C26.0945 42.532 26.3325 42.308 26.6265 42.308C26.8505 42.308 27.0325 42.434 27.1025 42.616C27.1725 42.798 27.2285 43.148 27.3125 43.372L28.7125 47.404C28.8525 47.782 28.9225 48.104 28.9645 48.286L30.8125 43.372C30.8965 43.148 30.9525 42.812 31.0225 42.63C31.0925 42.448 31.2885 42.308 31.5125 42.308C31.8065 42.308 32.0445 42.546 32.0445 42.84C32.0445 42.91 32.0165 43.05 31.9605 43.162C31.8765 43.33 31.7785 43.484 31.6945 43.694L28.8525 51.086C28.5445 51.898 27.9985 52.206 27.1165 52.206ZM39.7241 48.748C39.4441 48.972 39.0101 49.084 38.6181 49.084C37.5821 49.084 37.0221 48.524 37.0221 47.516V43.134H36.9381C36.7001 43.134 36.5041 43.204 36.3081 43.204C36.0281 43.204 35.8181 42.994 35.8181 42.728C35.8181 42.462 36.0281 42.252 36.3081 42.252C36.5041 42.252 36.7001 42.322 36.9381 42.322H37.0221V41.664C37.0221 41.412 36.9521 41.076 36.9521 40.908C36.9521 40.572 37.1901 40.348 37.4981 40.348C37.8061 40.348 38.0441 40.572 38.0441 40.908C38.0441 41.076 37.9741 41.412 37.9741 41.664V42.308H38.8001C38.9681 42.308 39.2481 42.252 39.4021 42.252C39.6821 42.252 39.8921 42.462 39.8921 42.728C39.8921 42.994 39.6821 43.204 39.4021 43.204C39.2481 43.204 38.9681 43.148 38.8001 43.148H37.9741V47.544C37.9741 48.062 38.2821 48.216 38.5341 48.216C38.7721 48.216 38.9401 48.118 39.0521 47.978C39.1641 47.852 39.3321 47.754 39.5001 47.754C39.7521 47.754 40.0041 47.908 40.0041 48.23C40.0041 48.44 39.8781 48.622 39.7241 48.748ZM42.7394 48.538C42.7394 48.846 42.5014 49.084 42.1934 49.084C41.8854 49.084 41.6474 48.846 41.6474 48.538C41.6474 48.286 41.7034 48.02 41.7034 47.768V43.652C41.7034 43.4 41.5914 43.036 41.5914 42.868C41.5914 42.532 41.8294 42.308 42.1374 42.308C42.4454 42.308 42.6414 42.532 42.6414 42.868V43.12C43.1594 42.49 43.8034 42.14 44.3214 42.14C44.7414 42.14 44.9934 42.392 44.9934 42.728C44.9934 43.036 44.7134 43.288 44.4054 43.288C44.1254 43.288 44.0414 43.148 43.8734 43.148C43.5234 43.148 43.0754 43.484 42.6834 44.086V47.768C42.6834 48.02 42.7394 48.286 42.7394 48.538ZM48.4322 48.328C49.1182 48.328 49.6782 48.09 50.0142 47.754V45.43C49.7622 45.626 49.3142 45.752 48.4042 45.822C47.4102 45.906 46.8922 46.382 46.8922 47.11C46.8922 47.824 47.4802 48.328 48.4322 48.328ZM51.0502 49.084C50.7002 49.084 50.3362 48.902 50.1822 48.524C49.7202 48.958 49.1182 49.196 48.3202 49.196C46.9342 49.196 45.9122 48.398 45.9122 47.11C45.9122 45.962 46.7102 45.052 48.3062 44.968C49.3142 44.912 49.8042 44.8 50.0142 44.562V44.198C50.0142 43.47 49.4822 42.938 48.6702 42.938C48.0402 42.938 47.6342 43.232 47.4942 43.75C47.4242 43.974 47.2002 44.128 46.9902 44.128C46.6682 44.128 46.4722 43.876 46.4722 43.61C46.4722 43.442 46.5422 43.274 46.6402 43.12C46.9622 42.616 47.6342 42.14 48.6982 42.14C50.0842 42.14 51.0082 42.98 51.0082 44.296V47.964C51.0082 48.062 51.0222 48.09 51.0642 48.09C51.1342 48.09 51.1902 48.034 51.3442 48.034C51.6242 48.034 51.8202 48.258 51.8202 48.51C51.8202 48.86 51.5122 49.084 51.0502 49.084ZM53.5133 40.138C53.5133 39.774 53.8213 39.466 54.1853 39.466C54.5493 39.466 54.8573 39.774 54.8573 40.138C54.8573 40.502 54.5493 40.81 54.1853 40.81C53.8213 40.81 53.5133 40.502 53.5133 40.138ZM53.6953 47.768V43.624C53.6953 43.372 53.6393 43.106 53.6393 42.854C53.6393 42.546 53.8773 42.308 54.1853 42.308C54.4933 42.308 54.7313 42.546 54.7313 42.854C54.7313 43.106 54.6753 43.372 54.6753 43.624V47.768C54.6753 48.02 54.7313 48.286 54.7313 48.538C54.7313 48.846 54.4933 49.084 54.1853 49.084C53.8773 49.084 53.6393 48.846 53.6393 48.538C53.6393 48.286 53.6953 48.02 53.6953 47.768ZM62.3117 49.084C62.0037 49.084 61.7657 48.846 61.7657 48.538C61.7657 48.286 61.8217 48.02 61.8217 47.768V44.744C61.8217 43.666 61.1917 42.98 60.2397 42.98C59.5117 42.98 58.8677 43.386 58.4197 43.974V47.768C58.4197 48.02 58.4757 48.286 58.4757 48.538C58.4757 48.846 58.2377 49.084 57.9297 49.084C57.6217 49.084 57.3837 48.846 57.3837 48.538C57.3837 48.286 57.4397 48.02 57.4397 47.768V43.652C57.4397 43.4 57.3277 43.036 57.3277 42.868C57.3277 42.532 57.5797 42.308 57.8877 42.308C58.1957 42.308 58.4197 42.532 58.4197 42.868V43.036C58.9377 42.462 59.6237 42.14 60.4637 42.14C61.8917 42.14 62.8017 43.218 62.8017 44.632V47.768C62.8017 48.02 62.8577 48.286 62.8577 48.538C62.8577 48.846 62.6197 49.084 62.3117 49.084ZM65.2574 40.138C65.2574 39.774 65.5654 39.466 65.9294 39.466C66.2934 39.466 66.6014 39.774 66.6014 40.138C66.6014 40.502 66.2934 40.81 65.9294 40.81C65.5654 40.81 65.2574 40.502 65.2574 40.138ZM65.4394 47.768V43.624C65.4394 43.372 65.3834 43.106 65.3834 42.854C65.3834 42.546 65.6214 42.308 65.9294 42.308C66.2374 42.308 66.4754 42.546 66.4754 42.854C66.4754 43.106 66.4194 43.372 66.4194 43.624V47.768C66.4194 48.02 66.4754 48.286 66.4754 48.538C66.4754 48.846 66.2374 49.084 65.9294 49.084C65.6214 49.084 65.3834 48.846 65.3834 48.538C65.3834 48.286 65.4394 48.02 65.4394 47.768ZM74.0558 49.084C73.7478 49.084 73.5098 48.846 73.5098 48.538C73.5098 48.286 73.5658 48.02 73.5658 47.768V44.744C73.5658 43.666 72.9358 42.98 71.9838 42.98C71.2558 42.98 70.6118 43.386 70.1638 43.974V47.768C70.1638 48.02 70.2198 48.286 70.2198 48.538C70.2198 48.846 69.9818 49.084 69.6738 49.084C69.3658 49.084 69.1278 48.846 69.1278 48.538C69.1278 48.286 69.1838 48.02 69.1838 47.768V43.652C69.1838 43.4 69.0718 43.036 69.0718 42.868C69.0718 42.532 69.3238 42.308 69.6318 42.308C69.9398 42.308 70.1638 42.532 70.1638 42.868V43.036C70.6818 42.462 71.3678 42.14 72.2078 42.14C73.6358 42.14 74.5458 43.218 74.5458 44.632V47.768C74.5458 48.02 74.6018 48.286 74.6018 48.538C74.6018 48.846 74.3638 49.084 74.0558 49.084ZM79.7735 48.342C80.3055 48.342 80.8655 48.146 81.2575 47.642V43.666C80.8655 43.19 80.3615 42.98 79.6615 42.98C78.3175 42.98 77.6315 44.142 77.6315 45.584C77.6315 47.054 78.4015 48.342 79.7735 48.342ZM79.5075 52.122C78.5135 52.122 77.7715 51.772 77.3095 51.212C77.1415 51.016 77.0575 50.834 77.0575 50.624C77.0575 50.358 77.2955 50.134 77.5755 50.134C77.7995 50.134 77.9815 50.246 78.1075 50.512C78.3315 50.988 78.7655 51.268 79.4795 51.268C80.5715 51.268 81.2575 50.456 81.2575 48.986V48.566C80.8515 48.944 80.3335 49.196 79.6755 49.196C77.7855 49.196 76.6515 47.558 76.6515 45.584C76.6515 43.638 77.7715 42.14 79.6055 42.14C80.3475 42.14 80.8655 42.378 81.2575 42.784C81.2995 42.49 81.5235 42.308 81.8035 42.308C82.0695 42.308 82.3495 42.532 82.3495 42.868C82.3495 43.036 82.2375 43.372 82.2375 43.624V48.776C82.2375 51.072 81.1035 52.122 79.5075 52.122ZM86.5022 48.356C87.4262 48.356 88.0562 47.908 88.0562 47.25C88.0562 46.676 87.6362 46.396 86.4742 46.032L86.1802 45.934C84.8642 45.5 84.4442 44.73 84.4442 43.932C84.4442 43.008 85.2562 42.154 86.5022 42.154C87.5242 42.154 88.1962 42.56 88.5602 43.022C88.6722 43.162 88.7702 43.344 88.7702 43.554C88.7702 43.806 88.5462 44.044 88.2522 44.044C88.0842 44.044 87.8742 43.96 87.7622 43.708C87.5382 43.204 87.1602 42.98 86.5442 42.98C85.8022 42.98 85.3682 43.414 85.3682 43.904C85.3682 44.352 85.5362 44.772 86.6142 45.094L86.7962 45.15C88.3222 45.626 88.9942 46.144 88.9942 47.25C88.9942 48.258 88.1402 49.196 86.5302 49.196C85.4942 49.196 84.6402 48.776 84.2202 47.95C84.1362 47.782 84.0522 47.6 84.0522 47.376C84.0522 47.124 84.2482 46.858 84.5422 46.858C84.8502 46.858 85.0462 47.096 85.0742 47.348C85.1442 48.006 85.8302 48.356 86.5022 48.356Z" fill="black"/>
</svg>
